<svg width="151" height="87" viewBox="0 0 151 87" fill="none" xmlns="http://www.w3.org/2000/svg">
<path d="M26.398 82.0178H1.1852V5.15664H51.301V3.97144H0V83.203H26.398V82.0178Z" fill="#15151A"/>
<path d="M99.54 3.97144V5.15664H149.227V82.0178H124.44V83.203H150.412V3.97144H99.54Z" fill="#15151A"/>
<path d="M59.4715 10.5885V10.1151C60.5988 10.1151 61.1642 9.63149 61.1642 8.66085V1.37592C61.1642 0.987668 60.9053 0.790136 60.3911 0.790136C59.6963 0.790136 59.1309 1.01491 58.6984 1.46107C58.2659 1.91063 57.9457 2.58497 57.7346 3.4909L57.2441 3.36489L57.6733 0C57.9151 0.0340576 58.1433 0.0578965 58.3612 0.078331C58.5758 0.0987656 58.787 0.112388 58.9845 0.112388H65.0706C65.292 0.112388 65.5167 0.102171 65.7483 0.078331C65.9799 0.0578965 66.2183 0.0306518 66.4601 0V3.30359L66.0344 3.3683C65.9084 1.68245 65.0672 0.841221 63.5175 0.841221C62.9931 0.841221 62.7308 1.02173 62.7308 1.37933V8.66425C62.7308 9.63489 63.2996 10.1185 64.4371 10.1185V10.5919H59.4715V10.5885Z" fill="#15151A"/>
<path d="M75.9996 10.5882V10.1148C77.0417 10.1148 77.5628 9.75036 77.5628 9.02494V5.72135C77.3755 5.56468 76.9736 5.48295 76.3606 5.48295H73.5168C73.3056 5.48295 73.1047 5.49997 72.9174 5.53744C72.7266 5.5749 72.5495 5.6362 72.3792 5.71794V9.02153C72.3792 9.74696 72.8629 10.1114 73.8335 10.1114V10.5848H69.2051V10.1114C70.2779 10.1114 70.816 9.74696 70.816 9.01812V1.97842C70.816 1.04865 70.2779 0.585461 69.2051 0.585461V0.112061H73.8335V0.585461C72.8629 0.585461 72.3792 1.05205 72.3792 1.98182V4.69281C72.7266 4.80861 73.1047 4.8665 73.5168 4.8665H76.3606C76.9498 4.8665 77.3516 4.80861 77.5628 4.69281V1.98182C77.5628 1.05205 77.0417 0.585461 75.9996 0.585461V0.112061H80.5667V0.585461C79.6097 0.585461 79.1295 1.04865 79.1295 1.97842V9.02153C79.1295 9.75036 79.6097 10.1148 80.5667 10.1148V10.5882H75.9996Z" fill="#15151A"/>
<path d="M84.044 10.5882V10.1148C85.0147 10.1148 85.4983 9.7708 85.4983 9.08624V1.91711C85.4983 1.02821 84.9772 0.585461 83.9351 0.585461V0.112061H92.2451L92.3711 3.06826L91.8807 3.13297C91.7853 2.56421 91.6457 2.12146 91.455 1.80472C91.2642 1.48799 91.0361 1.25299 90.767 1.09973C90.498 0.946472 90.1914 0.857922 89.844 0.830676C89.4967 0.80343 89.1186 0.789809 88.7065 0.789809H88.2638C87.4634 0.789809 87.0615 1.02821 87.0615 1.50161V4.3318C87.0615 4.64853 87.1876 4.8052 87.4396 4.8052H87.9777C88.2399 4.8052 88.4852 4.79158 88.7133 4.76774C88.9415 4.7439 89.1425 4.67238 89.3127 4.55999C89.4864 4.451 89.6295 4.28071 89.7419 4.05593C89.8509 3.82775 89.9292 3.52123 89.9701 3.13297H90.5558V7.22669H89.9701C89.9292 6.83503 89.8645 6.52851 89.7793 6.30373C89.6976 6.07555 89.575 5.90185 89.4183 5.78265C89.2583 5.66345 89.0641 5.58171 88.8325 5.54425C88.6009 5.50679 88.3149 5.48976 87.9777 5.48976H87.787C87.3034 5.48976 87.0615 5.66345 87.0615 6.01084V9.02834C87.0615 9.62776 87.4839 9.93087 88.3251 9.93087H88.8155C89.4796 9.93087 90.0143 9.88319 90.4196 9.78101C90.8249 9.68225 91.1553 9.52218 91.4073 9.30421C91.6593 9.08965 91.8637 8.81718 92.0169 8.49023C92.1702 8.16328 92.3268 7.77843 92.4835 7.33908L92.9126 7.4651L92.4835 10.595H84.044V10.5882Z" fill="#15151A"/>
<path d="M26.5212 35.8727V34.9429C27.8358 34.9429 28.4897 34.4627 28.4897 33.5057V23.3293C28.4897 22.563 27.8051 22.1781 26.4326 22.1781V21.2041H31.4323C31.9908 21.2041 32.4608 21.1939 32.8354 21.17C33.2135 21.1462 33.6426 21.136 34.1296 21.136C36.0777 21.136 37.5013 21.4936 38.4005 22.2088C39.2996 22.924 39.7491 24.0173 39.7491 25.492C39.7491 26.0539 39.6504 26.5852 39.4528 27.0858C39.2553 27.5865 38.9249 28.0224 38.4686 28.3903C38.0122 28.7581 37.4196 29.051 36.6976 29.2655C35.9756 29.4801 35.0901 29.5857 34.0445 29.5857C33.6017 29.5857 33.2373 29.5686 32.9478 29.5414C32.6618 29.5107 32.3859 29.4665 32.1168 29.4086V33.4138C32.1168 33.9008 32.3007 34.2754 32.672 34.5411C33.0432 34.8067 33.5779 34.9395 34.2863 34.9395V35.8693H26.5212V35.8727ZM32.1202 28.2847C32.4165 28.3596 32.7128 28.4107 33.0057 28.4379C33.302 28.4686 33.646 28.4822 34.0445 28.4822C34.5009 28.4822 34.8585 28.3971 35.1173 28.2268C35.3761 28.0565 35.5669 27.8317 35.6929 27.5524C35.8189 27.2732 35.8938 26.9428 35.9245 26.5682C35.9551 26.1901 35.9687 25.8053 35.9687 25.4068C35.9687 24.8619 35.9245 24.3851 35.8359 23.9798C35.7474 23.5745 35.5907 23.2407 35.3591 22.9751C35.1275 22.7094 34.8176 22.5119 34.4191 22.3791C34.0206 22.2463 33.52 22.1816 32.9172 22.1816C32.3859 22.1816 32.1202 22.5119 32.1202 23.176V28.2847Z" fill="#15151A"/>
<path d="M56.4984 23.9251C56.4984 22.7603 55.7593 22.1779 54.2846 22.1779V21.2039H59.6147V22.1779C58.4056 22.1779 57.7994 22.7603 57.7994 23.9251V30.5186C57.7994 31.3735 57.7177 32.15 57.5576 32.8516C57.3941 33.5531 57.0978 34.1492 56.6619 34.643C56.2259 35.1368 55.6401 35.5217 54.9011 35.7941C54.162 36.0666 53.2221 36.2028 52.0709 36.2028C51.199 36.2028 50.4021 36.0802 49.6698 35.8384C48.941 35.5966 48.3143 35.2628 47.7899 34.8337C47.2654 34.4046 46.8567 33.8937 46.5638 33.2977C46.2675 32.7017 46.121 32.0478 46.121 31.3394V23.5981C46.121 22.6547 45.4365 22.1813 44.064 22.1813V21.2073H51.8053V22.1813C50.4361 22.1813 49.7482 22.6547 49.7482 23.5981V30.7877C49.7482 31.2611 49.789 31.7413 49.8708 32.2351C49.9525 32.7289 50.1058 33.1751 50.3374 33.5736C50.569 33.9721 50.8857 34.299 51.291 34.5578C51.6963 34.8167 52.2276 34.9461 52.8781 34.9461C54.1654 34.9461 55.0918 34.5919 55.6538 33.8835C56.2157 33.1751 56.4984 32.1432 56.4984 30.7877V23.9251Z" fill="#15151A"/>
<path d="M65.568 23.53C65.568 22.6138 64.8528 22.1575 63.4224 22.1575V21.2039H71.0547C72.8699 21.2039 74.2459 21.4695 75.1825 22.0008C76.119 22.5321 76.5856 23.4483 76.5856 24.7459C76.5856 25.662 76.3132 26.367 75.7682 26.8676C75.2233 27.3683 74.44 27.7463 73.4217 27.9949C74.0551 28.0971 74.6273 28.2402 75.1348 28.4173C75.6456 28.5944 76.0679 28.8328 76.4051 29.1359C76.7457 29.439 77.0079 29.8136 77.1918 30.2632C77.3758 30.7127 77.4677 31.2543 77.4677 31.8911C77.4677 32.7153 77.3111 33.3931 76.9909 33.9244C76.6742 34.4557 76.2416 34.8746 75.6967 35.1743C75.1518 35.4774 74.5251 35.6851 73.8167 35.7941C73.1083 35.9065 72.3659 35.9576 71.5826 35.9576C70.3292 35.9576 69.0487 35.9474 67.7443 35.9236C66.4399 35.9031 65.0265 35.8827 63.5075 35.8691V34.9393C64.88 34.9393 65.5646 34.5783 65.5646 33.8528V23.53H65.568ZM69.1985 27.1776C69.1985 27.5045 69.362 27.6646 69.689 27.6646C70.4008 27.6646 70.9763 27.6169 71.4157 27.5215C71.8516 27.4262 72.1888 27.2661 72.4272 27.0447C72.6622 26.8234 72.8189 26.5407 72.8938 26.2001C72.9687 25.8595 73.0062 25.444 73.0062 24.957C73.0062 24.0851 72.8597 23.4244 72.5702 22.9817C72.2807 22.5389 71.6984 22.3141 70.8231 22.3141C70.2441 22.3141 69.8286 22.3686 69.5766 22.481C69.3245 22.5934 69.1985 22.7603 69.1985 22.9817V27.1776ZM69.1985 34.1457C69.1985 34.3807 69.3314 34.5578 69.597 34.677C69.8627 34.7928 70.3156 34.8541 70.9525 34.8541C71.9027 34.8541 72.6043 34.6294 73.0641 34.1798C73.5238 33.7302 73.7554 32.9605 73.7554 31.8673C73.7554 31.2202 73.6771 30.6923 73.5238 30.287C73.3672 29.8817 73.1288 29.5684 72.8018 29.347C72.4749 29.1257 72.0526 28.9758 71.5349 28.8941C71.0172 28.8123 70.4008 28.7715 69.6924 28.7715C69.3654 28.7715 69.2019 28.9996 69.2019 29.4594V34.1457H69.1985Z" fill="#15151A"/>
<path d="M82.4264 35.8725V34.9427C83.6933 34.9427 84.3302 34.6021 84.3302 33.9244V23.6833C84.3302 22.6786 83.615 22.1779 82.1846 22.1779V21.2039H89.9497V22.1779C88.6215 22.1779 87.9607 22.6786 87.9607 23.6833V33.9244C87.9607 34.4114 88.3899 34.6566 89.2447 34.6566H89.6227C90.2698 34.6566 90.825 34.6396 91.2814 34.6021C91.7377 34.5647 92.1362 34.4318 92.4768 34.2036C92.8174 33.9755 93.1205 33.611 93.3963 33.1172C93.6688 32.6234 93.9447 31.9252 94.2273 31.0261L95.5113 31.1589L94.8029 35.8725H82.4264Z" fill="#15151A"/>
<path d="M98.9919 35.873V34.9432C100.364 34.9432 101.049 34.4936 101.049 33.5945V23.929C101.049 22.7642 100.334 22.1818 98.9033 22.1818V21.2078H106.648V22.1818C105.333 22.1818 104.679 22.7642 104.679 23.929V33.5945C104.679 34.4936 105.371 34.9432 106.757 34.9432V35.873H98.9919Z" fill="#15151A"/>
<path d="M124.746 31.5134C124.539 32.2218 124.249 32.8621 123.871 33.4377C123.496 34.0132 123.05 34.5071 122.533 34.9192C122.015 35.3313 121.446 35.648 120.82 35.8694C120.193 36.0908 119.519 36.1997 118.797 36.1997C117.455 36.1997 116.321 36.0124 115.391 35.6344C114.461 35.2597 113.705 34.7387 113.123 34.0745C112.54 33.4104 112.118 32.6271 111.862 31.728C111.607 30.8289 111.474 29.848 111.474 28.7854C111.474 27.6513 111.593 26.6023 111.828 25.6453C112.063 24.6883 112.441 23.8607 112.966 23.1659C113.49 22.4745 114.161 21.933 114.979 21.5379C115.799 21.1463 116.787 20.9521 117.955 20.9521C118.292 20.9521 118.653 20.9726 119.038 21.0169C119.42 21.0611 119.801 21.1327 120.176 21.228C120.554 21.3234 120.905 21.4494 121.238 21.6026C121.572 21.7593 121.855 21.9466 122.09 22.168C122.458 21.5924 122.982 21.211 123.66 21.0169C124.191 22.2702 124.457 24.0173 124.457 26.2583H122.911C122.543 24.753 122.039 23.6768 121.395 23.0297C120.755 22.3826 119.893 22.0556 118.817 22.0556C118.064 22.0556 117.451 22.2225 116.981 22.5563C116.508 22.8866 116.137 23.3226 115.864 23.8641C115.592 24.4022 115.404 25.022 115.299 25.7236C115.197 26.4252 115.146 27.137 115.146 27.8624C115.146 28.8501 115.203 29.7765 115.323 30.6313C115.438 31.4862 115.653 32.2354 115.963 32.8689C116.273 33.5058 116.692 34.0064 117.223 34.3777C117.754 34.7455 118.432 34.9328 119.26 34.9328C120.336 34.9328 121.228 34.6365 121.937 34.0473C122.645 33.4581 123.265 32.4909 123.796 31.149L124.746 31.5134Z" fill="#15151A"/>
<path d="M31.3231 61.1537V60.224C32.7671 60.224 33.4925 59.7744 33.4925 58.8753V54.4069C33.3461 54.332 33.1417 54.2707 32.8829 54.2196C32.6241 54.1685 32.321 54.1413 31.9634 54.1413H29.3103C28.7653 54.1413 28.2851 54.2298 27.873 54.4069V58.8753C27.873 59.7744 28.5372 60.224 29.862 60.224V61.1537H22.0117V60.224C23.5 60.224 24.2459 59.7744 24.2459 58.8753V49.2097C24.2459 48.045 23.5 47.4626 22.0117 47.4626V46.4885H29.8654V47.4626C28.5372 47.4626 27.8764 48.0484 27.8764 49.2165V52.8369C28.0978 52.9118 28.3192 52.9629 28.5406 52.9935C28.7619 53.0242 29.0208 53.0378 29.3137 53.0378H31.9668C32.7331 53.0378 33.2439 52.9765 33.4959 52.8607V49.2165C33.4959 48.0484 32.7739 47.4626 31.3265 47.4626V46.4885H39.1359V47.4626C37.794 47.4626 37.1231 48.045 37.1231 49.2097V58.8753C37.1231 59.7744 37.794 60.224 39.1359 60.224V61.1537H31.3231Z" fill="#15151A"/>
<path d="M43.9755 61.154V60.2242C45.3038 60.2242 45.9679 59.7951 45.9679 58.9402V49.118C45.9679 48.0111 45.2527 47.4594 43.8223 47.4594V46.4854H56.5189L56.696 50.8209L55.3474 50.9333C55.2145 50.1227 55.0238 49.4995 54.7718 49.0635C54.5232 48.631 54.2201 48.3108 53.8659 48.1133C53.5117 47.9158 53.1064 47.7966 52.65 47.7591C52.1936 47.7216 51.6828 47.7046 51.1242 47.7046C50.6372 47.7046 50.2626 47.7727 49.9969 47.9124C49.7313 48.052 49.5984 48.2563 49.5984 48.5186V52.3943C49.5984 52.7485 49.7687 52.9222 50.1093 52.9222C50.4635 52.9222 50.787 52.9018 51.0799 52.8575C51.3762 52.8133 51.6385 52.7145 51.8667 52.5578C52.0949 52.4046 52.2822 52.173 52.432 51.863C52.5785 51.5531 52.6772 51.1342 52.7181 50.6029H54.0021V56.5085H52.7181C52.6738 56.0079 52.6023 55.6026 52.4967 55.2926C52.3946 54.9827 52.2515 54.7477 52.0642 54.5842C51.8803 54.4208 51.6487 54.3118 51.3694 54.2539C51.0902 54.196 50.7496 54.1585 50.3511 54.1415C49.8505 54.1858 49.5984 54.3867 49.5984 54.7409V58.8755C49.5984 59.5839 50.1502 59.9381 51.257 59.9381C52.1562 59.9381 52.8748 59.8666 53.4129 59.7269C53.951 59.5873 54.3903 59.3727 54.7275 59.0867C55.0681 58.7972 55.3371 58.4328 55.5449 57.99C55.7526 57.5473 55.9672 57.016 56.1852 56.3961L57.4453 56.5732L56.8255 61.154H43.9755Z" fill="#15151A"/>
<path d="M69.2187 61.1537V60.2478C69.4265 60.2171 69.6445 60.1899 69.8726 60.1592C70.1008 60.1286 70.3086 60.0945 70.4925 60.0604C70.6764 60.0264 70.8263 59.9787 70.9455 59.9276C71.0612 59.8765 71.1225 59.822 71.1225 59.7641C71.1225 59.6892 71.1055 59.6041 71.0681 59.5087C71.0306 59.4133 70.9897 59.3078 70.9489 59.1886L69.9748 56.4912C69.9135 56.3277 69.7671 56.2153 69.5321 56.1472C69.2971 56.0825 69.0518 56.0485 68.8032 56.0485H65.5746C65.1012 56.0485 64.8151 56.1949 64.7129 56.4912L64.0045 58.7458C63.9739 58.8207 63.9534 58.9025 63.9398 58.991C63.9228 59.0796 63.9194 59.1749 63.9194 59.2771C63.9194 59.8527 64.546 60.1422 65.7994 60.1422V61.1605H60.6328V60.1422C61.457 60.0809 62.07 59.5802 62.4685 58.6368L67.7134 46.1377L69.7705 46.4238L74.9234 59.3861C74.9813 59.5496 75.0766 59.6824 75.2095 59.7846C75.3423 59.8867 75.4921 59.9685 75.6624 60.0298C75.8327 60.0877 76.0064 60.1354 76.1835 60.1728C76.3606 60.2103 76.5309 60.2375 76.6944 60.2512V61.1571H69.2187V61.1537ZM67.4477 49.7614L65.7006 53.988C65.5371 54.3422 65.4554 54.5635 65.4554 54.6521C65.4554 54.7713 65.6836 54.8292 66.1433 54.8292H68.8645C69.2187 54.8292 69.3958 54.7985 69.3958 54.7406C69.3958 54.6657 69.2562 54.2672 68.9769 53.5452L67.4477 49.7614Z" fill="#15151A"/>
<path d="M80.4781 61.154V60.2242C81.7451 60.2242 82.382 59.8836 82.382 59.2059V48.9647C82.382 47.96 81.6667 47.4594 80.2363 47.4594V46.4854H88.0015V47.4594C86.6732 47.4594 86.0125 47.96 86.0125 48.9647V59.2059C86.0125 59.6929 86.4416 59.9381 87.2965 59.9381H87.6745C88.3216 59.9381 88.8767 59.9211 89.3331 59.8836C89.7895 59.8462 90.188 59.7133 90.5285 59.4851C90.8691 59.257 91.1722 58.8925 91.4481 58.3987C91.7206 57.9049 91.9964 57.2067 92.2791 56.3076L93.5631 56.4404L92.8547 61.154H80.4781Z" fill="#15151A"/>
<path d="M96.7169 61.1536V60.2238C98.2495 60.2238 99.0192 59.604 99.0192 58.3643V48.365C99.0192 47.9222 98.7161 47.7008 98.1133 47.7008C97.6535 47.7008 97.2618 47.7792 96.9281 47.9324C96.5977 48.0891 96.3082 48.3207 96.063 48.6306C95.8212 48.9405 95.6134 49.3254 95.4432 49.792C95.2729 50.2586 95.123 50.8001 94.9902 51.4199L93.6177 51.2224L94.2375 46.3113C94.619 46.3692 95.0413 46.4135 95.4977 46.4441C95.954 46.4748 96.315 46.4884 96.5807 46.4884H105.32C105.643 46.4884 106.042 46.4748 106.515 46.4441C106.989 46.4135 107.414 46.3692 107.799 46.3113V51.1543L106.515 51.2667C106.44 50.1019 106.195 49.23 105.776 48.6544C105.357 48.0789 104.628 47.7928 103.597 47.7928C102.963 47.7928 102.643 47.9835 102.643 48.3684V58.3677C102.643 59.604 103.426 60.2272 104.99 60.2272V61.157H96.7169V61.1536Z" fill="#15151A"/>
<path d="M120.942 61.1537V60.224C122.386 60.224 123.112 59.7744 123.112 58.8753V54.4069C122.965 54.332 122.761 54.2707 122.502 54.2196C122.243 54.1685 121.94 54.1413 121.582 54.1413H118.929C118.384 54.1413 117.904 54.2298 117.492 54.4069V58.8753C117.492 59.7744 118.156 60.224 119.481 60.224V61.1537H111.627V60.224C113.116 60.224 113.862 59.7744 113.862 58.8753V49.2097C113.862 48.045 113.116 47.4626 111.627 47.4626V46.4885H119.481V47.4626C118.153 47.4626 117.492 48.0484 117.492 49.2165V52.8369C117.714 52.9118 117.935 52.9629 118.156 52.9935C118.378 53.0242 118.636 53.0378 118.929 53.0378H121.582C122.349 53.0378 122.86 52.9765 123.112 52.8607V49.2165C123.112 48.0484 122.39 47.4626 120.942 47.4626V46.4885H128.748V47.4626C127.406 47.4626 126.735 48.045 126.735 49.2097V58.8753C126.735 59.7744 127.406 60.224 128.748 60.224V61.1537H120.942Z" fill="#15151A"/>
<path d="M41.2202 83.4172C41.1248 83.9655 40.9477 84.4424 40.6923 84.8476C40.4335 85.2529 40.1167 85.5901 39.7455 85.8592C39.3709 86.1282 38.9486 86.3325 38.482 86.4688C38.012 86.605 37.5249 86.6765 37.0175 86.6765C36.2716 86.6765 35.5939 86.5437 34.9877 86.2712C34.3814 86.0022 33.8638 85.631 33.4312 85.1576C32.9987 84.6808 32.6683 84.1222 32.4367 83.4751C32.2052 82.828 32.0894 82.1298 32.0894 81.3806C32.0894 80.5598 32.2222 79.8071 32.4844 79.1226C32.7467 78.438 33.1009 77.8488 33.5504 77.3516C33.9966 76.8577 34.5211 76.4729 35.1137 76.197C35.7097 75.9246 36.3432 75.7849 37.0175 75.7849C37.8281 75.7849 38.5944 76.0267 39.3096 76.5103C39.6774 76.1323 40.0588 75.9109 40.4471 75.8462C40.4811 75.8803 40.5288 75.9961 40.5901 76.2038C40.6548 76.4082 40.7127 76.6738 40.7706 77.0008C40.8285 77.3277 40.8796 77.7024 40.9205 78.1213C40.9614 78.5436 40.9852 78.9863 40.9852 79.4495H40.4471C40.2053 78.438 39.783 77.6751 39.1836 77.1643C38.5841 76.6534 37.8826 76.398 37.0822 76.398C36.5032 76.398 36.0094 76.5206 35.5973 76.7692C35.1852 77.0178 34.848 77.3448 34.5858 77.75C34.3235 78.1553 34.1294 78.6185 34.0102 79.1328C33.8876 79.6505 33.8297 80.1749 33.8297 80.713C33.8297 81.4623 33.8944 82.1537 34.0272 82.7906C34.1601 83.4274 34.3678 83.9792 34.6505 84.4492C34.9366 84.9192 35.3044 85.287 35.7574 85.556C36.2103 85.8251 36.7518 85.9579 37.3853 85.9579C37.7838 85.9579 38.1448 85.917 38.4683 85.8319C38.7919 85.7468 39.0848 85.6003 39.3538 85.396C39.6229 85.1916 39.8681 84.9124 40.0963 84.5582C40.3245 84.204 40.539 83.7646 40.7536 83.2401L41.2202 83.4172Z" fill="#15151A"/>
<path d="M49.3257 86.6729C48.5799 86.6729 47.8885 86.5333 47.255 86.254C46.6215 85.9747 46.0766 85.5899 45.6202 85.1028C45.1605 84.6124 44.8029 84.0368 44.5474 83.3795C44.2886 82.7222 44.1592 82.0172 44.1592 81.2714C44.1592 80.5766 44.2784 79.8988 44.5202 79.2415C44.762 78.5842 45.1128 77.9984 45.5624 77.4876C46.0153 76.9767 46.5602 76.568 47.1971 76.2547C47.834 75.9447 48.5424 75.7881 49.3223 75.7881C50.092 75.7881 50.8004 75.9209 51.4475 76.19C52.0946 76.459 52.6531 76.8337 53.1231 77.3105C53.5931 77.7907 53.9575 78.356 54.2232 79.0099C54.4854 79.6638 54.6183 80.3756 54.6183 81.1454C54.6183 81.8197 54.4923 82.4872 54.2402 83.1513C53.9882 83.8155 53.6306 84.4081 53.1742 84.9291C52.7179 85.4502 52.1593 85.8725 51.5054 86.1927C50.8549 86.5094 50.1261 86.6729 49.3257 86.6729ZM49.4517 86.0565C50.0409 86.0565 50.5484 85.9338 50.9673 85.6852C51.3896 85.44 51.737 85.0994 52.0095 84.6669C52.2853 84.2344 52.4863 83.7269 52.6191 83.1445C52.7519 82.5621 52.8166 81.9321 52.8166 81.2577C52.8166 80.6277 52.7519 80.018 52.6191 79.4288C52.4863 78.8396 52.2785 78.3186 51.9958 77.8588C51.7132 77.4024 51.3385 77.0346 50.8821 76.7553C50.4224 76.476 49.8672 76.3364 49.2167 76.3364C48.6173 76.3364 48.1065 76.4692 47.691 76.7315C47.2754 76.9937 46.9383 77.3479 46.6794 77.7873C46.4206 78.23 46.2367 78.7409 46.1277 79.3164C46.0153 79.8954 45.9608 80.5017 45.9608 81.1283C45.9608 81.8231 46.0289 82.4702 46.1652 83.0696C46.3014 83.669 46.5126 84.1901 46.7986 84.6328C47.0847 85.0756 47.4457 85.423 47.8885 85.675C48.3312 85.9304 48.8523 86.0565 49.4517 86.0565Z" fill="#15151A"/>
<path d="M66.0274 86.4344V85.961C66.9538 85.961 67.417 85.5761 67.417 84.8064L67.3046 77.4602L63.9397 86.4344H63.4969L59.8936 77.6032L59.8289 84.5714C59.8187 85.4978 60.3432 85.961 61.4092 85.961V86.4344H57.6016V85.961C58.5586 85.961 59.066 85.4535 59.1171 84.442L59.2431 77.3819V77.2252C59.2431 77.1094 59.2295 77.0038 59.2023 76.9085C59.175 76.8131 59.1069 76.728 58.9979 76.6564C58.8889 76.5815 58.7255 76.527 58.5177 76.4896C58.3066 76.4521 58.0239 76.4351 57.6629 76.4351V75.9617H60.9188L64.11 83.972L67.1581 75.9617H70.3663V76.4351C70.019 76.4351 69.7431 76.4589 69.5456 76.5066C69.348 76.5543 69.1948 76.6224 69.096 76.7143C68.9972 76.8029 68.9325 76.9051 68.9053 77.0243C68.878 77.1401 68.8644 77.2627 68.8644 77.3853L69.0381 84.6974C69.0381 85.5421 69.5149 85.9644 70.4753 85.9644V86.4378H66.0274V86.4344Z" fill="#15151A"/>
<path d="M73.9119 86.4344V85.961C74.8723 85.961 75.3491 85.583 75.3491 84.8235V77.3955C75.3491 76.7621 74.8485 76.4453 73.8506 76.4453V75.9549H76.4901C76.8374 75.9549 77.1099 75.9515 77.304 75.9481C77.4982 75.9413 77.6719 75.9379 77.8251 75.9311C77.9784 75.9242 78.1316 75.9208 78.2849 75.914C78.4381 75.9106 78.6459 75.9072 78.9081 75.9072C81.2683 75.9072 82.4467 76.929 82.4467 78.9724C82.4467 79.3709 82.3752 79.7455 82.2322 80.0929C82.0891 80.4403 81.8711 80.7468 81.5748 81.009C81.2785 81.2713 80.9039 81.479 80.4544 81.6255C80.0014 81.7719 79.4633 81.8469 78.8434 81.8469C78.5063 81.8469 78.1793 81.8332 77.8558 81.8094C77.5356 81.7822 77.2223 81.7379 76.9158 81.6766V84.7588C76.9158 85.5591 77.4369 85.961 78.479 85.961V86.4344H73.9119ZM77.5799 76.4487C77.1371 76.4487 76.9158 76.728 76.9158 77.2866V81.0942C77.178 81.1453 77.4675 81.1896 77.7842 81.2202C78.101 81.2509 78.4552 81.2679 78.8434 81.2679C79.1908 81.2679 79.4871 81.2032 79.7357 81.0704C79.981 80.9375 80.1887 80.7638 80.3522 80.5493C80.5157 80.3347 80.6349 80.0827 80.7098 79.7966C80.7813 79.5139 80.8188 79.2176 80.8188 78.9111C80.8188 77.2661 79.8754 76.4453 77.9886 76.4453H77.5799V76.4487Z" fill="#15151A"/>
<path d="M89.9053 86.4347V85.9613C90.0517 85.9409 90.2084 85.9204 90.3719 85.8966C90.5354 85.8762 90.6818 85.8489 90.8146 85.8183C90.9474 85.7842 91.0564 85.7468 91.145 85.6991C91.2335 85.6514 91.2778 85.5969 91.2778 85.5322C91.2676 85.4913 91.2608 85.43 91.254 85.3517C91.2472 85.2699 91.2199 85.1746 91.1654 85.0588L90.4536 83.1175C90.3378 82.8416 90.0177 82.7054 89.4898 82.7054H87.1364C86.7379 82.7054 86.4961 82.8416 86.411 83.1141L85.8729 84.7489C85.832 84.8442 85.8082 84.9805 85.8082 85.1576C85.8082 85.6378 86.2713 85.8796 87.1977 85.8796V86.4313H83.6421V85.8796C83.9486 85.8591 84.2074 85.7536 84.4254 85.5629C84.64 85.3755 84.8239 85.0997 84.9703 84.7421L88.7644 75.7168L89.2378 75.9075L92.9841 85.2938C93.1305 85.5152 93.2463 85.6514 93.3315 85.7059C93.3519 85.7263 93.4405 85.7536 93.5937 85.791C93.747 85.8285 93.9581 85.883 94.234 85.9579V86.4313H89.9053V86.4347ZM88.5294 77.951L87.1398 81.2716C87.024 81.5236 86.9661 81.7041 86.9661 81.8097C86.9661 81.9664 87.1637 82.0447 87.5519 82.0447H89.5443C89.8576 82.0447 90.0177 81.98 90.0177 81.854C90.0177 81.8029 89.9598 81.6292 89.844 81.3329L88.5294 77.951Z" fill="#15151A"/>
<path d="M105.627 86.6083L98.6413 77.7125V84.0778C98.6413 85.3311 99.1828 85.9578 100.269 85.9578V86.4312H96.4752V85.9578C97.3607 85.9578 97.8035 85.3311 97.8035 84.0744V77.096C97.8035 76.6533 97.2824 76.4319 96.2402 76.4319V75.9585H99.1283L105.31 83.8428V78.1722C105.31 77.0109 104.772 76.4285 103.699 76.4285V75.9551H107.493V76.4285C106.522 76.4285 106.039 77.0075 106.039 78.1688V86.4925L105.627 86.6083Z" fill="#15151A"/>
<path d="M112.104 86.4351V85.9617C113.181 85.9617 113.715 85.7199 113.715 85.2329V82.1472L111.076 77.764C110.538 76.8751 109.959 76.4324 109.335 76.4324V75.959H113.651V76.4324C112.891 76.4324 112.513 76.6129 112.513 76.9705C112.513 77.0556 112.533 77.134 112.578 77.2089C112.619 77.2838 112.683 77.3894 112.765 77.5256L114.992 81.2686L117.032 77.5903C117.067 77.4848 117.09 77.3758 117.111 77.2566C117.131 77.1408 117.145 77.025 117.145 76.9092C117.145 76.5925 116.723 76.4324 115.881 76.4324V75.959H119.546V76.4324C118.998 76.4324 118.582 76.6333 118.296 77.0352L115.343 82.0996V85.2976C115.343 85.7403 115.864 85.9617 116.906 85.9617V86.4351H112.104Z" fill="#15151A"/>
</svg>
